<?xml version="1.0" encoding="UTF-8" standalone="no"?>
<svg
   xmlns:dc="http://purl.org/dc/elements/1.1/"
   xmlns:cc="http://creativecommons.org/ns#"
   xmlns:rdf="http://www.w3.org/1999/02/22-rdf-syntax-ns#"
   xmlns:svg="http://www.w3.org/2000/svg"
   xmlns="http://www.w3.org/2000/svg"
   id="svg8"
   version="1.1"
   viewBox="0 0 1.2347223 3.7041667"
   height="3.7041667mm"
   width="1.2347223mm">
  <defs
     id="defs2" />
  <metadata
     id="metadata5">
    <rdf:RDF>
      <cc:Work
         rdf:about="">
        <dc:format>image/svg+xml</dc:format>
        <dc:type
           rdf:resource="http://purl.org/dc/dcmitype/StillImage" />
        <dc:title></dc:title>
      </cc:Work>
    </rdf:RDF>
  </metadata>
  <g
     transform="translate(-55.372623,-106.66487)"
     id="layer1">
    <g
       style="font-style:normal;font-variant:normal;font-weight:normal;font-stretch:normal;font-size:4.93889px;line-height:1.25;font-family:'Amatic SC';-inkscape-font-specification:'Amatic SC Normal';font-variant-ligatures:normal;font-variant-caps:normal;font-variant-numeric:normal;font-variant-east-asian:normal;fill:#ffffff;fill-opacity:1;stroke:none;stroke-width:0.264583"
       id="text835"
       aria-label="A">
      <path
         id="path837"
         style="font-style:normal;font-variant:normal;font-weight:normal;font-stretch:normal;font-size:4.93889px;font-family:'Amatic SC';-inkscape-font-specification:'Amatic SC Normal';font-variant-ligatures:normal;font-variant-caps:normal;font-variant-numeric:normal;font-variant-east-asian:normal;fill:#ffffff;fill-opacity:1;stroke-width:0.264583"
         d="m 56.551879,108.9221 0.05547,1.28778 v 0.053 q 0,0.0579 -0.01447,0.0724 -0.03858,0.0338 -0.0844,0.0338 -0.04582,0 -0.07476,-0.0241 -0.02894,-0.0241 -0.02894,-0.0603 0.01447,-0.0289 0.01447,-0.0579 l -0.01447,-0.0989 v -0.48954 q 0,-0.0651 -0.260449,-0.11094 -0.26045,-0.0482 -0.385851,-0.0482 -0.04823,0 -0.08682,0.18087 -0.03859,0.17846 -0.07476,0.39309 -0.03617,0.21463 -0.07235,0.26768 -0.115756,0 -0.151929,-0.0603 0.07717,-0.11093 0.147106,-0.54019 0.07235,-0.42926 0.115755,-0.62218 0.04341,-0.19534 0.15434,-0.84405 0.113344,-0.64871 0.151929,-0.82958 0.041,-0.18328 0.0627,-0.2701 0.0217,-0.0868 0.05547,-0.20498 0.07958,-0.28457 0.142282,-0.28457 0.07717,0 0.101286,0.0362 0.02653,0.0338 0.04341,0.16398 0.01929,0.12782 0.03617,0.32798 0.01929,0.19775 0.03376,0.36414 0.04582,0.5209 0.05547,0.68489 0.01206,0.16399 0.04582,0.23633 -0.0096,0.14952 -0.0096,0.25804 0,0.10611 0.04341,0.18569 z m -0.810286,0.41961 q 0.207395,0.0699 0.499194,0.0699 0.06029,0 0.08923,-0.01 l 0.02412,0.01 q 0.04582,0 0.04582,-0.0458 0,-1.03215 -0.192926,-2.22588 -0.0024,-0.0145 -0.01206,-0.053 -0.0072,-0.0386 -0.0072,-0.0603 -0.06029,0.17122 -0.06511,0.21704 l 0.01447,0.0289 q -0.01688,0.0169 -0.05547,0.17122 -0.03858,0.15193 -0.108521,0.63183 -0.06752,0.47749 -0.09887,0.61495 -0.02894,0.13505 -0.0627,0.24598 -0.06994,0.24598 -0.06994,0.3762 z" />
    </g>
  </g>
</svg>
