<?xml version="1.0" encoding="UTF-8" standalone="no"?>
<svg
   xmlns:dc="http://purl.org/dc/elements/1.1/"
   xmlns:cc="http://creativecommons.org/ns#"
   xmlns:rdf="http://www.w3.org/1999/02/22-rdf-syntax-ns#"
   xmlns:svg="http://www.w3.org/2000/svg"
   xmlns="http://www.w3.org/2000/svg"
   id="svg8"
   version="1.1"
   viewBox="0 0 1.0924398 3.2942004">
  <defs
     id="defs2" />
  <metadata
     id="metadata5">
    <rdf:RDF>
      <cc:Work
         rdf:about="">
        <dc:format>image/svg+xml</dc:format>
        <dc:type
           rdf:resource="http://purl.org/dc/dcmitype/StillImage" />
        <dc:title></dc:title>
      </cc:Work>
    </rdf:RDF>
  </metadata>
  <g
     transform="translate(-54.655261,-85.176342)"
     id="layer1">
    <g
       style="font-style:normal;font-variant:normal;font-weight:normal;font-stretch:normal;font-size:4.93889px;line-height:1.25;font-family:'Amatic SC';-inkscape-font-specification:'Amatic SC Normal';font-variant-ligatures:normal;font-variant-caps:normal;font-variant-numeric:normal;font-variant-east-asian:normal;fill:#ffffff;fill-opacity:1;stroke:none;stroke-width:0.264583"
       id="text835"
       aria-label="d">
      <path
         id="path837"
         style="font-style:normal;font-variant:normal;font-weight:normal;font-stretch:normal;font-size:4.93889px;font-family:'Amatic SC';-inkscape-font-specification:'Amatic SC Normal';font-variant-ligatures:normal;font-variant-caps:normal;font-variant-numeric:normal;font-variant-east-asian:normal;fill:#ffffff;fill-opacity:1;stroke-width:0.264583"
         d="m 55.723585,86.717333 q 0,0.195337 0.02412,0.238745 -0.03135,0.161575 -0.05788,0.436493 -0.02411,0.274919 -0.06029,0.419613 -0.03376,0.144694 -0.08682,0.248392 -0.130225,0.245979 -0.431671,0.409966 h -0.342442 q -0.04341,0 -0.04341,-0.132636 -0.01929,-0.383439 -0.01929,-0.858518 l 0.0096,-1.167199 q 0,-0.513664 -0.01929,-0.928453 -0.041,-0.03376 -0.041,-0.08441 0,-0.05064 0.041,-0.08682 0.041,-0.03617 0.07476,-0.03617 0.03376,0 0.07476,0.041 0.04341,0.03858 0.06511,0.05064 0.0217,0.0096 0.103697,0.02411 0.08199,0.01206 0.135048,0.03858 0.05547,0.02653 0.178456,0.144694 0.12299,0.115756 0.166398,0.147106 l -0.0048,0.0096 q 0.0048,0.03135 0.07235,0.127813 0.06994,0.09405 0.08682,0.13746 0.07958,0.214629 0.07958,0.588422 z m -0.144694,0.301446 -0.0048,-0.178456 -0.02412,-0.496783 q -0.0096,-0.279742 -0.171221,-0.593246 -0.07476,-0.149517 -0.20016,-0.248391 -0.12299,-0.09887 -0.265272,-0.09887 -0.05547,0 -0.05547,0.988743 0,0.986331 0.05547,1.767679 l -0.0048,0.09405 0.01929,0.0096 0.01447,0.06511 h 0.151929 q 0.02894,-0.041 0.07235,-0.07476 0.04582,-0.03376 0.0627,-0.04823 0.349677,-0.315916 0.349677,-1.186491 z" />
    </g>
  </g>
</svg>
