<?xml version="1.0" encoding="UTF-8" standalone="no"?>
<svg
   xmlns:dc="http://purl.org/dc/elements/1.1/"
   xmlns:cc="http://creativecommons.org/ns#"
   xmlns:rdf="http://www.w3.org/1999/02/22-rdf-syntax-ns#"
   xmlns:svg="http://www.w3.org/2000/svg"
   xmlns="http://www.w3.org/2000/svg"
   id="svg8"
   version="1.1"
   viewBox="0 0 1.5626954 3.2749078"
   height="3.2749078mm"
   width="1.5626954mm">
  <defs
     id="defs2" />
  <metadata
     id="metadata5">
    <rdf:RDF>
      <cc:Work
         rdf:about="">
        <dc:format>image/svg+xml</dc:format>
        <dc:type
           rdf:resource="http://purl.org/dc/dcmitype/StillImage" />
        <dc:title></dc:title>
      </cc:Work>
    </rdf:RDF>
  </metadata>
  <g
     transform="translate(-44.096045,-82.922958)"
     id="layer1">
    <g
       style="font-style:normal;font-variant:normal;font-weight:normal;font-stretch:normal;font-size:4.93889px;line-height:1.25;font-family:'Amatic SC';-inkscape-font-specification:'Amatic SC Normal';font-variant-ligatures:normal;font-variant-caps:normal;font-variant-numeric:normal;font-variant-east-asian:normal;fill:#ffffff;fill-opacity:1;stroke:none;stroke-width:0.264583"
       id="text835"
       aria-label="n">
      <path
         id="path837"
         style="font-style:normal;font-variant:normal;font-weight:normal;font-stretch:normal;font-size:4.93889px;font-family:'Amatic SC';-inkscape-font-specification:'Amatic SC Normal';font-variant-ligatures:normal;font-variant-caps:normal;font-variant-numeric:normal;font-variant-east-asian:normal;fill:#ffffff;fill-opacity:1;stroke-width:0.264583"
         d="m 45.48993,83.171349 -0.0096,-0.12299 q 0,-0.103697 0.06994,-0.103697 0.04823,0 0.07717,0.04582 0.03135,0.04582 0.03135,0.09646 v 0.330385 l -0.02653,0.041 q 0,0.38585 -0.05306,1.495171 -0.05305,1.10691 -0.103697,1.210607 -0.01206,0.0024 -0.07235,0.01688 -0.05788,0.01688 -0.08199,0.01688 -0.02412,0 -0.04341,-0.03135 -0.01929,-0.03376 -0.03135,-0.08682 -0.0096,-0.05305 -0.01929,-0.06994 l 0.0048,-0.01447 q -0.03135,-0.204983 -0.130225,-0.467844 -0.09646,-0.265272 -0.125401,-0.356912 -0.01688,-0.0217 -0.132637,-0.368969 -0.443728,-1.377005 -0.559483,-1.487937 -0.03858,0.151928 -0.03858,0.347265 l 0.0096,0.388263 -0.0096,0.238745 q 0,0.05547 0.01929,0.344854 h -0.01447 q 0,0.822344 0.03376,0.909161 v 0.443728 q 0.01929,0.03376 0.01929,0.08682 0,0.115755 -0.09164,0.115755 -0.103698,0 -0.103698,-0.265273 l 0.01929,-0.32315 -0.03135,-1.420413 0.03135,-0.875399 v -0.08682 q 0,-0.06511 0.0024,-0.08682 0.0048,-0.0217 0.0072,-0.05064 0.0048,-0.03135 0.01206,-0.04823 0.0072,-0.01688 0.01688,-0.03859 0.01929,-0.04341 0.05064,-0.06994 l 0.01447,0.01688 0.04823,-0.01206 q 0.05547,0.01929 0.06752,0.07717 0,0.0048 0.0048,0.02894 0.0072,0.0217 0.0072,0.02411 0.0844,0.352089 0.354501,0.981508 0.270095,0.629419 0.327973,0.810287 0.05788,0.178456 0.103697,0.378616 0.101286,0.443728 0.221865,0.648712 l 0.0096,-0.01447 q 0.113343,-1.07797 0.113343,-2.691309 z m -0.103697,3.012048 q 0.0048,0 0.0048,0.0048 z" />
    </g>
  </g>
</svg>
