<?xml version="1.0" encoding="UTF-8" standalone="no"?>
<svg
   xmlns:dc="http://purl.org/dc/elements/1.1/"
   xmlns:cc="http://creativecommons.org/ns#"
   xmlns:rdf="http://www.w3.org/1999/02/22-rdf-syntax-ns#"
   xmlns:svg="http://www.w3.org/2000/svg"
   xmlns="http://www.w3.org/2000/svg"
   id="svg8"
   version="1.1"
   viewBox="0 0 1.3456544 3.9019153"
   height="3.9019153mm"
   width="1.3456544mm">
  <defs
     id="defs2" />
  <metadata
     id="metadata5">
    <rdf:RDF>
      <cc:Work
         rdf:about="">
        <dc:format>image/svg+xml</dc:format>
        <dc:type
           rdf:resource="http://purl.org/dc/dcmitype/StillImage" />
        <dc:title></dc:title>
      </cc:Work>
    </rdf:RDF>
  </metadata>
  <g
     transform="translate(-44.096045,-81.576173)"
     id="layer1">
    <g
       style="font-style:normal;font-variant:normal;font-weight:normal;font-stretch:normal;font-size:4.93889px;line-height:1.25;font-family:'Amatic SC';-inkscape-font-specification:'Amatic SC Normal';font-variant-ligatures:normal;font-variant-caps:normal;font-variant-numeric:normal;font-variant-east-asian:normal;fill:#ffffff;fill-opacity:1;stroke:none;stroke-width:0.264583"
       id="text835"
       aria-label="N">
      <path
         id="path837"
         style="font-style:normal;font-variant:normal;font-weight:normal;font-stretch:normal;font-size:4.93889px;font-family:'Amatic SC';-inkscape-font-specification:'Amatic SC Normal';font-variant-ligatures:normal;font-variant-caps:normal;font-variant-numeric:normal;font-variant-east-asian:normal;fill:#ffffff;fill-opacity:1;stroke-width:0.264583"
         d="m 45.342825,85.154939 0.01447,0.178456 q 0,0.144694 -0.125401,0.144694 -0.08682,0 -0.118167,-0.185691 -0.01688,-0.08682 -0.01929,-0.09646 -0.482313,-1.521699 -0.607715,-2.223465 -0.0048,-0.0217 -0.0072,-0.06752 -0.0048,-0.09887 -0.04582,-0.139871 l 0.0096,-0.02411 q -0.03135,-0.183279 -0.04823,-0.253215 -0.01447,-0.07235 -0.03376,-0.161575 -0.03376,-0.156752 -0.08682,-0.282153 -0.01447,0.101286 -0.01447,0.15434 0,0.05306 0.0096,0.08199 -0.03376,0.115756 -0.03376,0.342443 v 1.352889 q 0,0.236334 0.03376,0.704178 0.03376,0.467844 0.03376,0.704178 l -0.03376,0.03858 h -0.113343 l -0.01447,-0.03858 q 0.0096,-0.03858 0.0096,-0.197749 l -0.05547,-1.719447 v -0.646301 l 0.03617,-0.933276 -0.0048,-0.103697 q 0,-0.0627 0.03135,-0.08199 0.03376,-0.0217 0.0844,-0.0217 0.05306,0 0.09164,0.03135 0.03859,0.02894 0.03859,0.09405 0,0.06511 0.0217,0.142282 0.0217,0.07717 0.0627,0.173633 0.041,0.09405 0.0627,0.173633 0.02412,0.07717 0.04341,0.250803 0.01929,0.171221 0.04582,0.303857 0.02653,0.132636 0.08682,0.356912 0.06029,0.224276 0.137459,0.496783 0.07958,0.272507 0.101286,0.359324 0.0217,0.08441 0.05788,0.217041 0.07717,0.274918 0.08199,0.388262 0.03376,0.05064 0.05064,0.195337 0.01929,0.144694 0.08199,0.197749 0.03135,-0.06994 0.03135,-0.236334 l 0.01929,-1.719448 -0.01447,-0.764466 0.01447,-0.188103 q 0,-0.05305 -0.01447,-0.0627 l 0.01447,-0.041 q 0,-0.303858 -0.01929,-0.405143 0.01929,-0.06752 0.12299,-0.06752 0.07958,0 0.07958,0.161575 -0.03135,0.0627 -0.03135,0.163986 l 0.0048,0.166398 q 0,0.106109 -0.01929,0.149518 l -0.01447,1.560284 q 0,0.04582 0.0096,0.132636 l -0.0096,0.0217 v 0.622184 l 0.0096,0.185691 q 0,0.294211 -0.04823,0.405143 z" />
    </g>
  </g>
</svg>
