<?xml version="1.0" encoding="UTF-8" standalone="no"?>
<svg
   xmlns:dc="http://purl.org/dc/elements/1.1/"
   xmlns:cc="http://creativecommons.org/ns#"
   xmlns:rdf="http://www.w3.org/1999/02/22-rdf-syntax-ns#"
   xmlns:svg="http://www.w3.org/2000/svg"
   xmlns="http://www.w3.org/2000/svg"
   id="svg8"
   version="1.1"
   viewBox="0 0 16.413374 6.8770995"
   height="6.8770995mm"
   width="16.413374mm">
  <defs
     id="defs2" />
  <metadata
     id="metadata5">
    <rdf:RDF>
      <cc:Work
         rdf:about="">
        <dc:format>image/svg+xml</dc:format>
        <dc:type
           rdf:resource="http://purl.org/dc/dcmitype/StillImage" />
        <dc:title></dc:title>
      </cc:Work>
    </rdf:RDF>
  </metadata>
  <g
     transform="translate(-34.898399,-95.530533)"
     id="layer1">
    <path
       d="m 51.182112,98.792349 q 0,0.08682 0.04341,0.15503 0.04961,0.06201 0.06821,0.142627 0.04961,0.204638 -0.03721,0.378271 -0.08682,0.167432 -0.266651,0.204639 -0.05581,-0.03101 -0.08682,-0.02481 -0.03101,0.0062 -0.08062,-0.03101 -0.08682,0.08682 -0.204639,0.167432 -0.111621,0.08061 -0.229443,0.04961 -0.0124,0.05581 -0.04961,0.05581 -0.03721,0 -0.04961,0.06201 -0.09302,0.02481 -0.161231,0.08061 -0.06821,0.0496 -0.155029,0.0992 -0.06821,0.22324 -0.124023,0.40308 -0.05581,0.17363 -0.111622,0.34726 -0.04961,0.17364 -0.111621,0.36587 -0.06201,0.18604 -0.148828,0.43409 -0.0062,0.0744 -0.05581,0.14882 -0.04341,0.0806 -0.09302,0.14263 -0.05581,-0.0124 -0.10542,0.0248 -0.04341,0.0372 -0.08682,0.0868 -0.167432,-0.0248 -0.341065,-0.006 -0.167431,0.0186 -0.310058,0.0372 -0.02481,0 -0.02481,0.0248 0.0062,0.031 -0.0124,0.0372 -0.179834,-0.062 -0.372071,-0.0496 -0.192236,0.0186 -0.390673,0.062 -0.204639,0.0434 -0.409278,0.093 -0.21084,0.0558 -0.421679,0.062 -0.08062,-0.0558 -0.130225,-0.14263 -0.04961,-0.0806 -0.08062,-0.17983 -0.03721,-0.093 -0.06201,-0.19844 -0.0248,-0.0992 -0.04341,-0.19223 0,-0.0868 0.03721,-0.12403 0.03721,-0.0372 0.07441,-0.0806 0.142627,-0.006 0.260449,-0.0248 0.111621,-0.0124 0.217041,-0.031 0.10542,-0.0124 0.21084,-0.031 0.10542,-0.0124 0.235645,-0.0124 0.04341,-0.0248 0.16123,-0.0372 0.111621,-0.0186 0.260449,-0.031 0.148828,-0.0124 0.31626,-0.0186 0.16123,-0.006 0.310059,-0.006 0.07441,-0.26045 0.16123,-0.5085 0.09302,-0.25424 0.16123,-0.50229 0.04341,-0.15503 0.08682,-0.316266 0.04341,-0.167431 0.08682,-0.303857 0.0186,-0.02481 0.09922,-0.06821 0.08682,-0.04961 0.217041,-0.111621 0.130225,-0.06821 0.291455,-0.148828 0.161231,-0.08062 0.334863,-0.186035 -0.06201,-0.05581 -0.179834,-0.117823 -0.111621,-0.06821 -0.223242,-0.130224 -0.111621,-0.06821 -0.204638,-0.124024 -0.08682,-0.05581 -0.09302,-0.09302 -0.0124,-0.03101 0.0062,-0.09922 0.0186,-0.06821 0.04341,-0.136426 0.02481,-0.07441 0.04341,-0.130224 0.0248,-0.05581 0.0248,-0.06821 0.05581,-0.21084 0.117823,-0.396875 0.06201,-0.186036 0.117822,-0.378272 0.06201,-0.198437 0.111621,-0.415478 0.05581,-0.217041 0.09922,-0.489893 -0.241846,-0.02481 -0.452686,-0.0186 -0.204639,0 -0.328662,0.0186 -0.297656,0.04961 -0.458887,0.09302 -0.16123,0.03721 -0.223242,0.06821 -0.10542,-0.0062 -0.167432,-0.04341 -0.06201,-0.04341 -0.09922,-0.10542 -0.03721,-0.06201 -0.06201,-0.136425 -0.03101,-0.07441 -0.06821,-0.15503 0.02481,-0.05581 0.0124,-0.155029 -0.0124,-0.10542 -0.06201,-0.155029 0.04341,-0.0124 0.06821,-0.08061 0.0186,-0.07442 0,-0.10542 0.09302,-0.03101 0.192236,-0.03721 0.09922,-0.0124 0.198437,-0.0186 0.09922,-0.0124 0.186036,-0.02481 0.09302,-0.0186 0.16123,-0.06201 0.272852,-0.0124 0.564307,-0.03101 0.297656,-0.0186 0.558105,-0.03101 0.09302,0.03101 0.217041,0.03721 0.124024,0 0.241846,0.0186 0.124023,0.0186 0.223242,0.07442 0.10542,0.05581 0.142627,0.204638 0.08062,0.0124 0.111621,0.04961 0.03721,0.031 0.04961,0.08682 0.0124,0.04961 0.0062,0.111621 0,0.05581 0,0.117822 -0.05581,0.167432 -0.09302,0.347266 -0.03101,0.173633 -0.08062,0.378271 -0.04341,0.198438 -0.09302,0.415479 -0.04961,0.217041 -0.10542,0.427881 -0.0248,0.09302 -0.05581,0.223242 -0.03101,0.130225 -0.05581,0.217041 0.136426,0.08682 0.272852,0.192236 0.136426,0.10542 0.260449,0.179834 -0.0062,0.04961 0.05581,0.111621 0.06821,0.05581 0.142627,0.06821 z m -6.033741,2.530081 q -0.272851,0.0372 -0.496094,-0.0248 -0.223242,-0.062 -0.403076,-0.19223 -0.173633,-0.13023 -0.303857,-0.31006 -0.124024,-0.17984 -0.204639,-0.38447 -0.05581,-0.421685 0.03101,-0.762749 0.08682,-0.347266 0.254248,-0.638721 0.167432,-0.291455 0.378271,-0.545703 0.217042,-0.254248 0.415479,-0.489892 0.04341,0.0186 0.06821,0 0.03101,-0.0186 0.04961,-0.04961 0.02481,-0.03101 0.04961,-0.06201 0.03101,-0.03101 0.06821,-0.04341 0.0248,-0.05581 0.06201,-0.09302 0.04341,-0.03721 0.08682,-0.06821 0.04961,-0.03721 0.08682,-0.07441 0.04341,-0.03721 0.07441,-0.09302 0.06201,-0.0124 0.10542,-0.04341 0.04961,-0.03101 0.08682,-0.06821 0.04341,-0.03721 0.08682,-0.06821 0.04341,-0.03101 0.10542,-0.04961 v -0.08061 q 0.136426,-0.06201 0.198437,-0.136426 0.06201,-0.07441 0.148828,-0.192236 0.06821,-0.0062 0.10542,-0.0062 0.04341,0 0.130225,-0.0124 0.05581,-0.10542 0.10542,-0.155029 0.04961,-0.04961 0.142627,-0.111621 0.09302,0.04961 0.198437,0.06201 0.10542,0.0062 0.192237,0.09302 0.0062,0.07441 0.04341,0.117822 0.03721,0.03721 0.08062,0.07441 0.04341,0.03101 0.08682,0.06821 0.04341,0.03721 0.05581,0.10542 0.03101,0 0.03721,-0.0124 0.0124,-0.0124 0.04341,-0.0062 0.0124,0.04961 0.02481,0.08062 0.0124,0.03101 0.02481,0.05581 0.0186,0.02481 0.03101,0.05581 0.0186,0.03101 0.03101,0.07441 -0.03101,0.07441 -0.05581,0.16123 -0.02481,0.08062 -0.09922,0.111621 0,0.04961 0.03721,0.05581 0.03721,0 0.04341,0.04341 0.0062,0.05581 -0.0186,0.09302 0.173633,0.291455 0.31626,0.613916 0.142626,0.31626 0.32246,0.607715 -0.0124,0.08682 0.0062,0.173632 0.0248,0.08062 0.05581,0.161231 0.03721,0.08061 0.06821,0.16123 0.03101,0.08062 0.04341,0.161231 0.0124,0.10542 0,0.229443 -0.0124,0.117816 -0.04961,0.229436 -0.03721,0.11162 -0.09922,0.21084 -0.06201,0.093 -0.142627,0.14263 -0.09922,0.12402 -0.248047,0.20464 -0.148828,0.0744 -0.272851,0.17983 -0.08682,0.0496 -0.186035,0.0744 -0.09922,0.0186 -0.204639,0.0434 -0.08062,0.0496 -0.192236,0.0992 -0.111621,0.0434 -0.229444,0.0806 -0.117822,0.0372 -0.235644,0.062 -0.117823,0.0186 -0.21084,0.006 -0.223242,0.0806 -0.434082,0.11162 -0.21084,0.031 -0.496094,-0.031 z m 0.08062,-2.257229 q -0.06201,0.142627 -0.148828,0.260449 -0.08061,0.111621 -0.16123,0.229443 -0.08062,0.117823 -0.142627,0.254248 -0.05581,0.130225 -0.06201,0.310059 0.124024,0.10542 0.291455,0.13022 0.173633,0.0186 0.353467,0.006 0.179834,-0.0186 0.359668,-0.0496 0.179834,-0.031 0.322461,-0.031 0,-0.0558 0.04961,-0.0558 0.260449,-0.0248 0.483692,-0.142627 0.223242,-0.124023 0.465087,-0.248047 0.03101,-0.07441 0.08062,-0.130224 0.04961,-0.05581 0.05581,-0.161231 -0.03101,-0.05581 -0.04341,-0.09302 -0.0062,-0.03721 -0.0062,-0.111622 -0.161231,-0.223242 -0.279053,-0.483691 -0.117822,-0.26665 -0.272851,-0.502295 -0.0124,0.03101 -0.04961,0.06201 -0.03721,0.03101 -0.08062,-0.0124 -0.0186,0.06201 -0.05581,0.08682 -0.03721,0.0186 -0.08682,0.0186 -0.04341,0 -0.09302,-0.0186 -0.04341,-0.0186 -0.08062,-0.04961 -0.217041,0.173632 -0.434082,0.334863 -0.21084,0.16123 -0.384472,0.378271 -0.03101,0.0186 -0.03721,0.0124 -0.0062,-0.0062 -0.04341,0.0062 z m -2.821537,1.308449 q 0.03721,0.031 0.124023,0.0744 0.09302,0.0372 0.192236,0.0806 0.09922,0.0372 0.186036,0.0682 0.08682,0.031 0.124023,0.0372 0.06821,0.12402 0.07441,0.22324 0.0124,0.093 0.03101,0.19844 -0.03101,0.031 -0.04341,0.10542 -0.0062,0.0682 -0.0062,0.0992 -0.0062,0.0496 -0.02481,0.0558 -0.0186,0.0124 -0.03101,0.0558 -0.0062,0.0124 0.0062,0.0372 0.0124,0.0248 0.0062,0.0372 -0.0062,0.031 -0.03101,0.031 -0.0186,0.006 -0.03101,0.0372 -0.02481,0.0682 -0.03721,0.0806 -0.0062,0.0186 -0.0124,0.0186 0,0.006 -0.0124,0.0124 -0.0062,0.0124 -0.03721,0.0744 -0.04341,0.093 -0.10542,0.17983 -0.06201,0.093 -0.08062,0.17984 -0.08682,0.0744 -0.217041,0.18603 -0.124024,0.11782 -0.235645,0.16123 -0.05581,-0.0248 -0.173633,-0.0806 -0.124023,-0.0558 -0.229443,-0.12403 -0.111621,-0.0682 -0.167432,-0.14882 -0.05581,-0.0806 0.0124,-0.14883 0.111621,-0.11782 0.198437,-0.28526 0.08062,-0.16123 0.142627,-0.34726 0.06201,-0.19224 0.111621,-0.39068 0.04341,-0.20463 0.08682,-0.39067 0.0248,0.0248 0.04961,0.0186 0.02481,-0.0124 0.04961,-0.031 0.02481,-0.0248 0.04341,-0.0558 0.0186,-0.031 0.03721,-0.0496 z m -3.286621,0.94878 q -0.272852,0.0372 -0.496094,-0.0248 -0.223242,-0.062 -0.403076,-0.19223 -0.173633,-0.13023 -0.303858,-0.31006 -0.124023,-0.17984 -0.204638,-0.38447 -0.05581,-0.421685 0.03101,-0.762749 0.08682,-0.347266 0.254248,-0.638721 0.167431,-0.291455 0.378271,-0.545703 0.217041,-0.254248 0.415479,-0.489892 0.04341,0.0186 0.06821,0 0.031,-0.0186 0.04961,-0.04961 0.02481,-0.03101 0.04961,-0.06201 0.03101,-0.03101 0.06821,-0.04341 0.02481,-0.05581 0.06201,-0.09302 0.04341,-0.03721 0.08682,-0.06821 0.04961,-0.03721 0.08682,-0.07441 0.04341,-0.03721 0.07441,-0.09302 0.06201,-0.0124 0.10542,-0.04341 0.04961,-0.03101 0.08682,-0.06821 0.04341,-0.03721 0.08682,-0.06821 0.04341,-0.03101 0.105419,-0.04961 v -0.08061 q 0.136426,-0.06201 0.198438,-0.136426 0.06201,-0.07441 0.148828,-0.192236 0.06821,-0.0062 0.10542,-0.0062 0.04341,0 0.130225,-0.0124 0.05581,-0.10542 0.10542,-0.155029 0.04961,-0.04961 0.142626,-0.111621 0.09302,0.04961 0.198438,0.06201 0.10542,0.0062 0.192236,0.09302 0.0062,0.07441 0.04341,0.117822 0.03721,0.03721 0.08062,0.07441 0.04341,0.03101 0.08682,0.06821 0.04341,0.03721 0.05581,0.10542 0.03101,0 0.03721,-0.0124 0.0124,-0.0124 0.04341,-0.0062 0.0124,0.04961 0.02481,0.08062 0.0124,0.03101 0.0248,0.05581 0.0186,0.02481 0.03101,0.05581 0.0186,0.03101 0.03101,0.07441 -0.03101,0.07441 -0.05581,0.16123 -0.0248,0.08062 -0.09922,0.111621 0,0.04961 0.03721,0.05581 0.03721,0 0.04341,0.04341 0.0062,0.05581 -0.0186,0.09302 0.173633,0.291455 0.31626,0.613916 0.142627,0.31626 0.322461,0.607715 -0.0124,0.08682 0.0062,0.173632 0.02481,0.08062 0.05581,0.161231 0.03721,0.08061 0.06821,0.16123 0.03101,0.08062 0.04341,0.161231 0.0124,0.10542 0,0.229443 -0.0124,0.117816 -0.04961,0.229436 -0.03721,0.11162 -0.09922,0.21084 -0.06201,0.093 -0.142627,0.14263 -0.09922,0.12402 -0.248047,0.20464 -0.148828,0.0744 -0.272852,0.17983 -0.08682,0.0496 -0.186035,0.0744 -0.09922,0.0186 -0.204638,0.0434 -0.08062,0.0496 -0.192237,0.0992 -0.111621,0.0434 -0.229443,0.0806 -0.117822,0.0372 -0.235645,0.062 -0.117822,0.0186 -0.210839,0.006 -0.223243,0.0806 -0.434082,0.11162 -0.21084,0.031 -0.496094,-0.031 z m 0.08062,-2.257229 q -0.06201,0.142627 -0.148828,0.260449 -0.08061,0.111621 -0.161231,0.229443 -0.08061,0.117823 -0.142627,0.254248 -0.05581,0.130225 -0.06201,0.310059 0.124023,0.10542 0.291455,0.13022 0.173633,0.0186 0.353467,0.006 0.179834,-0.0186 0.359668,-0.0496 0.179834,-0.031 0.322461,-0.031 0,-0.0558 0.04961,-0.0558 0.260449,-0.0248 0.483691,-0.142627 0.223242,-0.124023 0.465088,-0.248047 0.03101,-0.07441 0.08062,-0.130224 0.04961,-0.05581 0.05581,-0.161231 -0.03101,-0.05581 -0.04341,-0.09302 -0.0062,-0.03721 -0.0062,-0.111622 -0.161231,-0.223242 -0.279053,-0.483691 -0.117822,-0.26665 -0.272852,-0.502295 -0.0124,0.03101 -0.04961,0.06201 -0.03721,0.03101 -0.08062,-0.0124 -0.0186,0.06201 -0.05581,0.08682 -0.03721,0.0186 -0.08682,0.0186 -0.04341,0 -0.09302,-0.0186 -0.04341,-0.0186 -0.08062,-0.04961 -0.217041,0.173632 -0.434082,0.334863 -0.21084,0.16123 -0.384473,0.378271 -0.03101,0.0186 -0.03721,0.0124 -0.0062,-0.0062 -0.04341,0.0062 z m -1.271245,2.430859 q 0.111621,0.031 0.142627,0.0868 0.03721,0.0558 0.0186,0.12402 -0.0124,0.0682 -0.05581,0.13643 -0.04341,0.0744 -0.08682,0.13022 -0.05581,-0.0124 -0.10542,0.0248 -0.04961,0.0372 -0.08682,0.0868 -0.167432,-0.0248 -0.341064,-0.006 -0.167432,0.0186 -0.310059,0.0372 -0.02481,0 -0.02481,0.0248 0.0062,0.031 -0.0124,0.0372 -0.179834,-0.062 -0.37207,-0.0496 -0.192237,0.0186 -0.396875,0.062 -0.198438,0.0434 -0.409278,0.093 -0.204638,0.0558 -0.415478,0.062 -0.08062,-0.0558 -0.136426,-0.14263 -0.04961,-0.0806 -0.08682,-0.17983 -0.03101,-0.093 -0.05581,-0.19844 -0.0186,-0.0992 -0.03721,-0.19223 -0.0062,-0.0682 0.0186,-0.11163 0.03101,-0.0372 0.06821,-0.0682 0.08682,-0.35967 0.204639,-0.71933 0.117822,-0.36587 0.223242,-0.71314 0.03101,-0.09302 0.04341,-0.173632 0.0186,-0.08682 0.04341,-0.173632 -0.130225,-0.08682 -0.266651,-0.192237 -0.136426,-0.10542 -0.260449,-0.179834 0.0062,-0.04961 -0.06201,-0.111621 -0.06821,-0.06201 -0.142627,-0.06821 0.0062,-0.08682 -0.04341,-0.148828 -0.04341,-0.06821 -0.06821,-0.155029 -0.04961,-0.198438 0.03721,-0.37207 0.08682,-0.173633 0.266651,-0.21084 0.05581,0.03101 0.08682,0.02481 0.03101,-0.0062 0.08062,0.031 0.08682,-0.08682 0.204639,-0.167431 0.117822,-0.08062 0.229443,-0.04961 0.0062,-0.0248 0.0186,-0.03721 0.0186,-0.0124 0.03101,-0.0186 0.0186,-0.0062 0.03101,-0.0186 0.0186,-0.0124 0.0186,-0.04341 0.09302,-0.02481 0.179834,-0.05581 0.09302,-0.03721 0.179834,-0.08682 0.04961,-0.186035 0.09302,-0.359668 0.04961,-0.173633 0.09302,-0.347265 0.04341,-0.179834 0.08061,-0.372071 0.04341,-0.198437 0.08062,-0.427881 0.0062,-0.111621 -0.0124,-0.204638 -0.0124,-0.05581 -0.0248,-0.09302 -0.0124,-0.03721 -0.04341,-0.06201 0.04961,-0.0124 0.07442,-0.08061 0.0248,-0.06821 0,-0.09922 0.09922,-0.031 0.210839,-0.03721 0.117823,-0.0124 0.229444,-0.0186 0.111621,-0.0124 0.21084,-0.02481 0.09922,-0.0186 0.173632,-0.06201 0.310059,-0.0124 0.644922,-0.02481 0.334864,-0.0186 0.626319,-0.03101 0.09922,0.03101 0.241845,0.03721 0.142627,0 0.279053,0.0186 0.142627,0.0186 0.254248,0.08061 0.111621,0.05581 0.155029,0.204638 0.09302,0.0124 0.130225,0.04961 0.04341,0.03101 0.05581,0.08682 0.0124,0.04961 0.0062,0.111621 -0.0062,0.05581 -0.0062,0.117823 -0.15503,0.117822 -0.427881,0.167431 -0.272852,0.04341 -0.570508,0.06201 -0.297656,0.0186 -0.576709,0.0186 -0.279053,0 -0.440283,0.0248 -0.08682,0.0124 -0.167432,0.02481 -0.08062,0.0062 -0.148828,0.0186 -0.03721,0.179834 -0.10542,0.465088 -0.06201,0.285254 -0.130225,0.564307 -0.06201,0.279053 -0.117822,0.489892 -0.04961,0.21084 -0.06821,0.235645 -0.0186,0.02481 -0.10542,0.06201 -0.08061,0.03721 -0.204638,0.09922 -0.124024,0.05581 -0.285254,0.136426 -0.161231,0.08061 -0.334864,0.179834 0.06201,0.05581 0.173633,0.124024 0.117823,0.06201 0.229444,0.130224 0.111621,0.06201 0.198437,0.117822 0.08682,0.05581 0.09922,0.08682 0.0062,0.03721 0,0.09302 -0.0062,0.04961 -0.02481,0.10542 -0.0124,0.05581 -0.0248,0.09922 -0.0124,0.04341 -0.0124,0.04961 -0.09302,0.291456 -0.16123,0.502292 -0.06201,0.20464 -0.117823,0.39068 -0.04961,0.17983 -0.105419,0.35966 -0.05581,0.17984 -0.136426,0.42168 0.10542,-0.0186 0.297656,-0.0372 0.16123,-0.0124 0.427881,-0.0248 0.26665,-0.0124 0.675928,-0.0124 0.0062,0.062 0.04961,0.0868 0.04341,0.031 0.08682,0.0496 0.04961,0.0186 0.08682,0.0434 0.03721,0.0248 0.03721,0.0868 z"
       style="font-style:normal;font-variant:normal;font-weight:normal;font-stretch:normal;font-size:6.35px;line-height:1.25;font-family:'Permanent Marker';-inkscape-font-specification:'Permanent Marker Normal';font-variant-ligatures:normal;font-variant-caps:normal;font-variant-numeric:normal;font-variant-east-asian:normal;fill:#005500;fill-opacity:1;stroke:none;stroke-width:0.264583"
       id="path845" />
  </g>
</svg>
