<?xml version="1.0" encoding="UTF-8" standalone="no"?>
<svg
   xmlns:dc="http://purl.org/dc/elements/1.1/"
   xmlns:cc="http://creativecommons.org/ns#"
   xmlns:rdf="http://www.w3.org/1999/02/22-rdf-syntax-ns#"
   xmlns:svg="http://www.w3.org/2000/svg"
   xmlns="http://www.w3.org/2000/svg"
   id="svg8"
   version="1.1"
   viewBox="0 0 0.87539881 3.3786051">
  <defs
     id="defs2" />
  <metadata
     id="metadata5">
    <rdf:RDF>
      <cc:Work
         rdf:about="">
        <dc:format>image/svg+xml</dc:format>
        <dc:type
           rdf:resource="http://purl.org/dc/dcmitype/StillImage" />
        <dc:title></dc:title>
      </cc:Work>
    </rdf:RDF>
  </metadata>
  <g
     transform="translate(-79.62098,-107.8308)"
     id="layer1">
    <g
       style="font-style:normal;font-variant:normal;font-weight:normal;font-stretch:normal;font-size:4.93889px;line-height:1.25;font-family:'Amatic SC';-inkscape-font-specification:'Amatic SC Normal';font-variant-ligatures:normal;font-variant-caps:normal;font-variant-numeric:normal;font-variant-east-asian:normal;fill:#ffffff;fill-opacity:1;stroke:none;stroke-width:0.264583"
       id="text835"
       aria-label="r">
      <path
         id="path837"
         style="font-style:normal;font-variant:normal;font-weight:normal;font-stretch:normal;font-size:4.93889px;font-family:'Amatic SC';-inkscape-font-specification:'Amatic SC Normal';font-variant-ligatures:normal;font-variant-caps:normal;font-variant-numeric:normal;font-variant-east-asian:normal;fill:#ffffff;fill-opacity:1;stroke-width:0.264583"
         d="m 79.62098,108.0189 q 0,-0.1881 0.10852,-0.1881 0.241157,0 0.397909,0.12299 0.156752,0.12058 0.156752,0.35691 v 0.35932 q 0,0.19052 -0.192925,0.54502 -0.06511,0.11817 -0.06511,0.13022 0,0.01 0.185691,0.78135 0.188102,0.76929 0.197748,0.79341 0.0096,0.0241 0.04823,0.10128 0.03858,0.0772 0.03858,0.13264 0,0.0555 -0.05547,0.0555 l -0.07235,-0.0241 q -0.115755,-0.13023 -0.253215,-0.96463 -0.132636,-0.80546 -0.226687,-0.80546 h -0.01929 q -0.10852,0 -0.10852,0.0699 0,0.2701 0.03135,0.89952 0.03135,0.62701 0.05306,0.70176 l -0.03617,0.082 h -0.07235 l -0.03617,-0.0386 q -0.07958,-2.13906 -0.07958,-3.11092 z m 0.139871,0.0675 0.01929,1.19613 0.0096,0.01 q 0.09405,0 0.168809,-0.0965 0.07476,-0.0989 0.113344,-0.23875 0.07958,-0.28939 0.07958,-0.4389 0,-0.14952 -0.0096,-0.22428 -0.0096,-0.0772 -0.041,-0.16158 -0.06511,-0.17363 -0.282154,-0.17363 -0.02894,0 -0.04341,0.0458 -0.01447,0.0458 -0.01447,0.082 z" />
    </g>
  </g>
</svg>
