<?xml version="1.0" encoding="UTF-8" standalone="no"?>
<svg
   xmlns:dc="http://purl.org/dc/elements/1.1/"
   xmlns:cc="http://creativecommons.org/ns#"
   xmlns:rdf="http://www.w3.org/1999/02/22-rdf-syntax-ns#"
   xmlns:svg="http://www.w3.org/2000/svg"
   xmlns="http://www.w3.org/2000/svg"
   id="svg8"
   version="1.1"
   viewBox="0 0 1.0731473 3.4259138"
   height="3.4259138mm"
   width="1.0731473mm">
  <defs
     id="defs2" />
  <metadata
     id="metadata5">
    <rdf:RDF>
      <cc:Work
         rdf:about="">
        <dc:format>image/svg+xml</dc:format>
        <dc:type
           rdf:resource="http://purl.org/dc/dcmitype/StillImage" />
        <dc:title></dc:title>
      </cc:Work>
    </rdf:RDF>
  </metadata>
  <g
     transform="translate(-78.850559,-89.632473)"
     id="layer1">
    <g
       style="font-style:normal;font-variant:normal;font-weight:normal;font-stretch:normal;font-size:4.93889px;line-height:1.25;font-family:'Amatic SC';-inkscape-font-specification:'Amatic SC Normal';font-variant-ligatures:normal;font-variant-caps:normal;font-variant-numeric:normal;font-variant-east-asian:normal;fill:#ffffff;fill-opacity:1;stroke:none;stroke-width:0.264583"
       id="text835"
       aria-label="u">
      <path
         id="path837"
         style="font-style:normal;font-variant:normal;font-weight:normal;font-stretch:normal;font-size:4.93889px;font-family:'Amatic SC';-inkscape-font-specification:'Amatic SC Normal';font-variant-ligatures:normal;font-variant-caps:normal;font-variant-numeric:normal;font-variant-east-asian:normal;fill:#ffffff;fill-opacity:1;stroke-width:0.264583"
         d="m 79.873064,90.763498 0.0048,0.09887 q -0.0096,0.125401 -0.01447,0.337619 -0.0024,0.212218 -0.0072,0.402732 -0.0024,0.190514 -0.01206,0.412378 -0.0096,0.221864 -0.03859,0.397909 -0.06752,0.419612 -0.219452,0.559483 -0.163987,0.154341 -0.38344,0.03135 -0.09405,-0.05306 -0.159163,-0.132637 -0.0627,-0.07958 -0.101286,-0.511252 -0.03858,-0.434082 -0.04582,-0.913984 -0.0217,-1.442117 -0.04582,-1.644689 l 0.03135,-0.06994 q 0.113344,0.01447 0.113344,0.272507 l 0.01447,1.309481 0.05305,1.04662 q 0,0.561895 0.371382,0.561895 0.229099,0 0.289388,-1.034562 0.0048,-0.06994 0.0217,-0.668004 0.01929,-0.598069 0.01929,-1.442117 l -0.0096,-0.08923 q 0,-0.05547 0.06994,-0.05547 0.07235,0 0.08441,0.03376 0.01447,0.03135 0.01447,0.2918 0,0.258038 -0.03135,0.381028 0.0048,0.0096 0.0048,0.03135 0,0 -0.02412,0.393086 z" />
    </g>
  </g>
</svg>
