<?xml version="1.0" encoding="UTF-8" standalone="no"?>
<svg
   xmlns:dc="http://purl.org/dc/elements/1.1/"
   xmlns:cc="http://creativecommons.org/ns#"
   xmlns:rdf="http://www.w3.org/1999/02/22-rdf-syntax-ns#"
   xmlns:svg="http://www.w3.org/2000/svg"
   xmlns="http://www.w3.org/2000/svg"
   id="svg8"
   version="1.1"
   viewBox="0 0 0.86816406 3.279731">
  <defs
     id="defs2" />
  <metadata
     id="metadata5">
    <rdf:RDF>
      <cc:Work
         rdf:about="">
        <dc:format>image/svg+xml</dc:format>
        <dc:type
           rdf:resource="http://purl.org/dc/dcmitype/StillImage" />
        <dc:title></dc:title>
      </cc:Work>
    </rdf:RDF>
  </metadata>
  <g
     transform="translate(-50.095428,-114.65849)"
     id="layer1">
    <g
       style="font-style:normal;font-variant:normal;font-weight:normal;font-stretch:normal;font-size:4.93889px;line-height:1.25;font-family:'Amatic SC';-inkscape-font-specification:'Amatic SC Normal';font-variant-ligatures:normal;font-variant-caps:normal;font-variant-numeric:normal;font-variant-east-asian:normal;fill:#ffffff;fill-opacity:1;stroke:none;stroke-width:0.264583"
       id="text835"
       aria-label="z">
      <path
         id="path837"
         style="font-style:normal;font-variant:normal;font-weight:normal;font-stretch:normal;font-size:4.93889px;font-family:'Amatic SC';-inkscape-font-specification:'Amatic SC Normal';font-variant-ligatures:normal;font-variant-caps:normal;font-variant-numeric:normal;font-variant-east-asian:normal;fill:#ffffff;fill-opacity:1;stroke-width:0.264583"
         d="m 50.638031,117.89963 -0.2918,-0.0145 q -0.05547,0 -0.10852,0.0265 -0.05064,0.0265 -0.06752,0.0265 -0.07476,0 -0.07476,-0.0748 0,-0.0844 0.05788,-0.2918 0.142282,-0.51607 0.20016,-0.79823 0.05788,-0.28215 0.09164,-0.4172 0.03376,-0.13505 0.142282,-0.47267 0.238745,-0.74999 0.238745,-1.09726 l -0.463021,0.0314 q -0.02894,0 -0.05064,-0.0241 -0.01929,-0.0265 -0.01929,-0.0555 0,-0.0796 0.547426,-0.0796 0.12299,0 0.12299,0.0796 0,0.16881 -0.120579,0.5426 -0.120578,0.37138 -0.120578,0.44132 -0.02653,0.13505 -0.149517,0.54743 -0.308681,1.02732 -0.313504,1.50722 0.04823,0.01 0.142282,0.01 l 0.207395,-0.0169 q 0.142283,0 0.142283,0.0651 0,0.0651 -0.113344,0.0651 z" />
    </g>
  </g>
</svg>
