<svg version="1" xmlns="http://www.w3.org/2000/svg" width="953.333" height="953.333" viewBox="0 0 715.000000 715.000000"><path d="M327 1.1c-14.8 1.5-19.5 2-21 2.4-.8.2-3.7.7-6.5 1-9 1.1-31.7 6.4-45.5 10.6C149.8 46.5 64.5 125.2 24.7 226.5 12.4 257.8 5.6 285.8 1.6 322c-2.7 23.4-1.1 71.4 2.9 93.5.3 1.6 1 5.7 1.6 9 3.2 18.7 10.5 43.6 18.6 64 30 75.6 83.1 137.2 153.8 178.6 40.5 23.7 90.1 40.3 136 45.5 2.8.3 6.6.8 8.5 1.1 6.3.9 57.3 1.1 65.5.3 11.4-1.2 17.6-2 20.5-2.5 1.4-.2 5.4-.9 9-1.5 25-4.2 51.1-11.6 74-21 12-5 34.3-15.8 41-19.8 1.9-1.2 4.2-2.5 5-2.9 7.3-3.2 41.6-27.7 52.7-37.5 30.4-27.1 53-53.7 72.3-85.3 22.6-36.9 39.7-81.9 46.6-122.7 2-12.3 2.2-13.3 3-20.3.3-3.3.8-6.9 1.1-8 .3-1.1.6-14.4.8-29.5.3-24.8-.7-44.8-2.9-56.4-.3-1.6-.8-5-1.2-7.5-1.2-8.8-7.3-34.7-10.9-46.6-9.3-30.5-24.1-62.1-42.3-90-11.5-17.6-18.6-26.9-33.3-43.4C569.3 57.8 494.5 17 413 4.1c-6.3-1-8.8-1.3-25-3-9.6-1-51.2-1-61 0z"/></svg>